<?xml version="1.0" standalone="no"?>
<!DOCTYPE svg PUBLIC "-//W3C//DTD SVG 20010904//EN"
 "http://www.w3.org/TR/2001/REC-SVG-20010904/DTD/svg10.dtd">
<svg version="1.0" xmlns="http://www.w3.org/2000/svg"
 width="2880.000000pt" height="2880.000000pt" viewBox="0 0 2880.000000 2880.000000"
 preserveAspectRatio="xMidYMid meet">
<metadata>
Created by potrace 1.11, written by Peter Selinger 2001-2013
</metadata>
<g transform="translate(0.000000,2880.000000) scale(0.100000,-0.100000)"
fill="#000000" stroke="none">
<path d="M14293 16535 c-106 -32 -188 -103 -236 -205 -28 -58 -31 -75 -31
-155 0 -79 4 -98 31 -155 45 -96 133 -176 220 -199 35 -10 41 -15 37 -34 -2
-12 -29 -155 -60 -317 -54 -282 -76 -397 -88 -467 -3 -17 -17 -87 -30 -155
-14 -68 -28 -139 -31 -158 -3 -19 -22 -116 -41 -215 -19 -99 -42 -214 -49
-255 -16 -81 -106 -557 -130 -680 -8 -41 -16 -86 -19 -100 -2 -14 -11 -59 -20
-100 -9 -41 -18 -93 -22 -115 -3 -22 -7 -42 -9 -45 -2 -3 -6 -26 -10 -50 -4
-25 -18 -99 -31 -165 -13 -66 -24 -123 -24 -127 0 -3 50 -51 112 -105 61 -54
121 -106 132 -116 12 -10 48 -42 80 -70 32 -28 64 -56 70 -62 6 -5 45 -39 86
-75 41 -36 94 -83 118 -105 24 -22 47 -41 50 -43 4 -1 21 10 38 25 17 16 46
42 65 58 74 65 195 171 224 197 16 14 44 39 62 55 18 15 84 73 147 128 78 67
115 107 115 121 1 12 -8 66 -19 120 -11 55 -23 110 -25 124 -3 14 -7 36 -10
50 -3 14 -8 41 -11 60 -4 19 -8 42 -10 50 -5 27 -73 372 -93 475 -11 55 -23
116 -26 135 -3 19 -10 53 -15 75 -8 37 -23 114 -34 175 -3 14 -19 95 -36 180
-27 133 -80 405 -95 489 -3 14 -7 35 -9 46 -20 97 -104 521 -140 715 -3 14 -7
36 -10 50 -4 14 -13 61 -21 105 -9 44 -17 87 -20 95 -3 11 15 23 63 42 300
122 307 541 13 681 -52 25 -80 31 -140 33 -42 1 -95 -4 -118 -11z"/>
</g>
</svg>
