<?xml version="1.0" encoding="utf-8"?>
<!-- Generator: Adobe Illustrator 21.1.0, SVG Export Plug-In . SVG Version: 6.00 Build 0)  -->
<svg version="1.1" id="Layer_1" xmlns="http://www.w3.org/2000/svg" xmlns:xlink="http://www.w3.org/1999/xlink" x="0px" y="0px"
	 viewBox="0 0 2880 1800" style="enable-background:new 0 0 2880 1800;" xml:space="preserve">
<style type="text/css">
	.st0{enable-background:new    ;}
	.st1{fill:#FFFFFF;stroke:#000000;stroke-miterlimit:10;}
	.st2{fill:#990000;stroke:#000000;stroke-miterlimit:10;}
	.st3{stroke:#000000;stroke-miterlimit:10;}
</style>
<g class="st0">
	<path class="st1" d="M1134.7,780.8c49,0,90,41,90,90s-41,90-90,90h-64.5c-64.5,0-117.5-53.5-117.5-117.5v-44.5
		c0-64,53.5-117.5,117.5-117.5h123.5c4,0,7,3,7,6.5c0,4-3,7-7,7h-123.5c-57,0-104,47-104,104v44.5c0,57,47,104,104,104h64.5
		c41,0,76.5-34,76.5-76.5c0-42-35.5-76.5-76.5-76.5h-64c-4,0-7-3-7-7c0-3.5,3-6.5,7-6.5h6H1134.7z"/>
	<path class="st1" d="M1265.2,687.8c0-3.5,3-6.5,6.5-6.5c4,0,7,3,7,6.5v266.5c0,3.5-3,6.5-7,6.5c-3.5,0-6.5-3-6.5-6.5V687.8z"/>
	<path class="st1" d="M1458.2,749.2c46.5,0,87,38.5,87,86.5v38.5c0,48-40.5,86.5-87,86.5h-55.5c-37.5,0-67.5-30-67.5-67.5
		c0-37,30-67,67.5-67h128.5l-2-8c-8-32-38-55.5-71-55.5h-88.5c-3.5,0-6.5-3-6.5-6.5c0-4,3-7,6.5-7h6.5H1458.2z M1458.2,947.2
		c40.5,0,73-34,73-73v-34.5h-128.5c-30,0-54,24-54,53.5c0,30,24,54,54,54h30H1458.2z"/>
	<path class="st1" d="M1764.2,947.2c3.5,0,6.5,3,6.5,6.5c0,4-3,7-6.5,7h-81c-47,0-86.5-39.5-86.5-86.5v-38.5
		c0-47,39.5-86.5,86.5-86.5h81c3.5,0,6.5,3,6.5,7c0,3.5-3,6.5-6.5,6.5h-81c-38.5,0-73,32.5-73,73v38.5c0,39.5,33.5,73,73,73h74.5
		H1764.2z"/>
	<path class="st1" d="M1833.7,701.8c0,5-4,9-9,9s-9-4-9-9s4-9,9-9S1833.7,696.8,1833.7,701.8z M1817.7,758.8c0-4,3-7,7-7
		c3.5,0,6.5,3,6.5,7v195.5c0,3.5-3,6.5-6.5,6.5c-4,0-7-3-7-6.5V758.8z"/>
	<path class="st1" d="M2021.7,749.2c47,0,86.5,39.5,86.5,86.5v38.5c0,47-39.5,86.5-86.5,86.5h-38.5c-47,0-86.5-39.5-86.5-86.5v-38.5
		c0-47,39.5-86.5,86.5-86.5H2021.7z M1983.2,762.8c-38.5,0-73,32.5-73,73v38.5c0,39,33.5,73,73,73h38.5c39.5,0,73-33.5,73-73v-38.5
		c0-40-34-73-73-73H1983.2z"/>
	<path class="st1" d="M2371.2,953.8c0,4-3,7-7,7c-3.5,0-6.5-3-6.5-7v-118c0-40-34-73-73-73h-38.5c-39,0-72,33-73,71.5v119.5
		c0,4-3,7-6.5,7c-4,0-7-3-7-7v-119c1-46.5,39.5-85.5,86.5-85.5h38.5c46.5,0,86.5,39.5,86.5,85.5v0.5V953.8z"/>
</g>
<g>
	<polygon class="st2" points="706.2,1016.5 641.5,959.5 705.5,625.5 771,959.5 	"/>
	<g>
		<path d="M705.5,662.5c-20.4,0-37-16.6-37-37s16.6-37,37-37s37,16.6,37,37S725.9,662.5,705.5,662.5z"/>
		<path d="M705.5,589c20.1,0,36.5,16.4,36.5,36.5S725.6,662,705.5,662S669,645.6,669,625.5S685.4,589,705.5,589 M705.5,588
			c-20.7,0-37.5,16.8-37.5,37.5s16.8,37.5,37.5,37.5s37.5-16.8,37.5-37.5S726.2,588,705.5,588L705.5,588z"/>
	</g>
	<polyline class="st3" points="706,662 705.5,662.1 705.5,662.5 	"/>
</g>
</svg>
